<svg xmlns="http://www.w3.org/2000/svg" viewBox="0 0 100 100" width="50px" height="50px">
  <path fill="#ee3e54" d="M13 27A2 2 0 1 0 13 31A2 2 0 1 0 13 27Z" />
  <path fill="#f1bc19" d="M77 12A1 1 0 1 0 77 14A1 1 0 1 0 77 12Z" />
  <path fill="#fce0a2" d="M50 13A37 37 0 1 0 50 87A37 37 0 1 0 50 13Z" />
  <path fill="#f1bc19" d="M83 11A4 4 0 1 0 83 19A4 4 0 1 0 83 11Z" />
  <path fill="#ee3e54" d="M87 22A2 2 0 1 0 87 26A2 2 0 1 0 87 22Z" />
  <path fill="#fbcd59" d="M81 74A2 2 0 1 0 81 78 2 2 0 1 0 81 74zM15 59A4 4 0 1 0 15 67 4 4 0 1 0 15 59z" />
  <path fill="#ee3e54" d="M25 85A2 2 0 1 0 25 89A2 2 0 1 0 25 85Z" />
  <path fill="#fff" d="M18.5 51A2.5 2.5 0 1 0 18.5 56A2.5 2.5 0 1 0 18.5 51Z" />
  <path fill="#f1bc19" d="M21 66A1 1 0 1 0 21 68A1 1 0 1 0 21 66Z" />
  <path fill="#fff" d="M80 33A1 1 0 1 0 80 35A1 1 0 1 0 80 33Z" />
  <g>
    <path fill="#84a7d7" d="M33.7,68.319c0-0.217-0.101-0.421-0.271-0.554C27.563,63.223,24.2,56.571,24.2,49.517 C24.2,36.384,35.773,25.7,50,25.7s25.8,10.684,25.8,23.816S64.227,73.333,50,73.333c-2.882,0-5.726-0.442-8.453-1.315 c-0.069-0.022-0.142-0.033-0.213-0.033c-0.122,0-0.242,0.032-0.351,0.094L33.7,76.287V68.319z" />
    <path fill="#472b29" d="M50,26.4c13.84,0,25.1,10.37,25.1,23.117c0,12.746-11.26,23.116-25.1,23.116 c-2.811,0-5.583-0.431-8.24-1.282c-0.139-0.045-0.283-0.067-0.427-0.067c-0.243,0-0.485,0.063-0.701,0.188L34.4,75.074V68.32 c0-0.433-0.2-0.842-0.543-1.107c-5.693-4.41-8.957-10.86-8.957-17.696C24.9,36.77,36.16,26.4,50,26.4 M50,25 c-14.636,0-26.5,10.977-26.5,24.517c0,7.553,3.695,14.306,9.5,18.803v9.18l8.333-4.815c2.716,0.87,5.63,1.348,8.667,1.348 c14.636,0,26.5-10.977,26.5-24.516C76.5,35.977,64.636,25,50,25L50,25z" />
  </g>
  <g>
    <path fill="#472b29" d="M71.449,43.655c-0.105,0-0.203-0.066-0.237-0.172c-0.099-0.3-0.205-0.597-0.317-0.891 c-0.438-1.14-0.99-2.252-1.645-3.306c-0.072-0.117-0.036-0.271,0.081-0.345c0.116-0.073,0.271-0.036,0.345,0.081 c0.67,1.08,1.237,2.221,1.686,3.39c0.116,0.302,0.225,0.606,0.325,0.914c0.043,0.132-0.028,0.272-0.159,0.315 C71.501,43.651,71.475,43.655,71.449,43.655z" />
  </g>
  <g>
    <path fill="#472b29" d="M50,70.568c-12.544,0-22.75-9.499-22.75-21.176S37.456,28.217,50,28.217 c6.508,0,12.717,2.603,17.034,7.141c0.328,0.344,0.646,0.699,0.945,1.058c0.088,0.106,0.074,0.264-0.032,0.353 c-0.106,0.088-0.265,0.074-0.353-0.032c-0.291-0.35-0.602-0.697-0.922-1.033C62.448,31.263,56.372,28.717,50,28.717 c-12.269,0-22.25,9.275-22.25,20.676S37.731,70.068,50,70.068s22.25-9.275,22.25-20.676c0-1.037-0.083-2.079-0.248-3.099 c-0.021-0.137,0.071-0.265,0.207-0.287c0.145-0.015,0.265,0.072,0.287,0.207c0.168,1.046,0.254,2.115,0.254,3.179 C72.75,61.069,62.544,70.568,50,70.568z" />
  </g>
  <g>
    <path fill="#fffef4" d="M33 57.184L47.779 42.325 53.691 48.269 66.5 42.325 52.706 57.184 46.794 50.25z" />
    <path fill="#472b29" d="M33,57.434c-0.078,0-0.154-0.036-0.202-0.104c-0.072-0.099-0.062-0.236,0.024-0.323l14.779-14.858 c0.096-0.094,0.261-0.094,0.354,0l5.789,5.819l12.649-5.869c0.109-0.051,0.238-0.017,0.308,0.079 c0.07,0.097,0.063,0.23-0.019,0.317L52.89,57.354c-0.049,0.053-0.141,0.09-0.188,0.08c-0.071-0.002-0.139-0.033-0.186-0.088 l-5.784-6.784l-13.619,6.846C33.076,57.425,33.038,57.434,33,57.434z M46.794,50c0.071,0,0.142,0.03,0.19,0.088l5.729,6.72 l12.737-13.72l-11.654,5.407c-0.099,0.043-0.208,0.023-0.283-0.05l-5.734-5.766L34.262,56.27l12.42-6.243 C46.718,50.009,46.756,50,46.794,50z" />
  </g>
</svg>