<svg xmlns="http://www.w3.org/2000/svg" viewBox="0 0 100 100" width="50px" height="50px">
  <circle cx="13" cy="29" r="2" fill="#ee3e54" />
  <circle cx="77" cy="13" r="1" fill="#f1bc19" />
  <circle cx="50" cy="50" r="37" fill="#fce0a2" />
  <circle cx="83" cy="15" r="4" fill="#f1bc19" />
  <circle cx="87" cy="24" r="2" fill="#ee3e54" />
  <circle cx="81" cy="76" r="2" fill="#fbcd59" />
  <circle cx="15" cy="63" r="4" fill="#fbcd59" />
  <circle cx="25" cy="87" r="2" fill="#ee3e54" />
  <circle cx="18.5" cy="53.5" r="2.5" fill="#fff" />
  <circle cx="21" cy="67" r="1" fill="#f1bc19" />
  <circle cx="80" cy="34" r="1" fill="#fff" />
  <g>
    <path fill="#55a7f9" d="M37,71.3c-4.025,0-7.3-3.274-7.3-7.3V36c0-4.025,3.274-7.3,7.3-7.3h28c4.025,0,7.3,3.274,7.3,7.3v28 c0,4.025-3.274,7.3-7.3,7.3H37z" />
    <path fill="#472b29" d="M65,29.4c3.639,0,6.6,2.961,6.6,6.6v28c0,3.639-2.961,6.6-6.6,6.6H37c-3.639,0-6.6-2.961-6.6-6.6V36 c0-3.639,2.961-6.6,6.6-6.6H65 M65,28H37c-4.418,0-8,3.582-8,8v28c0,4.418,3.582,8,8,8h28c4.418,0,8-3.582,8-8V36 C73,31.582,69.418,28,65,28L65,28z" />
  </g>
  <g>
    <path fill="#ededeb" d="M64.458,68.5H37.542c-2.785,0-5.042-2.257-5.042-5.042V44.407c0-1.605,1.301-2.907,2.907-2.907 h31.186c1.605,0,2.907,1.301,2.907,2.907v19.051C69.5,66.243,67.243,68.5,64.458,68.5z" />
    <path fill="#472b29" d="M64.458,69h-5c-0.276,0-0.5-0.224-0.5-0.5s0.224-0.5,0.5-0.5h5C66.963,68,69,65.962,69,63.458 V44.407C69,43.08,67.92,42,66.593,42h-8.644c-0.276,0-0.5-0.224-0.5-0.5s0.224-0.5,0.5-0.5h8.644C68.472,41,70,42.528,70,44.407 v19.051C70,66.514,67.514,69,64.458,69z M57.458,69h-3c-0.276,0-0.5-0.224-0.5-0.5s0.224-0.5,0.5-0.5h3c0.276,0,0.5,0.224,0.5,0.5 S57.734,69,57.458,69z M51.458,69H37.542C34.486,69,32,66.514,32,63.458V44.407C32,42.528,33.528,41,35.407,41h4.542 c0.276,0,0.5,0.224,0.5,0.5s-0.224,0.5-0.5,0.5h-4.542C34.08,42,33,43.08,33,44.407v19.051C33,65.962,35.037,68,37.542,68h13.916 c0.276,0,0.5,0.224,0.5,0.5S51.734,69,51.458,69z M54.949,42h-3c-0.276,0-0.5-0.224-0.5-0.5s0.224-0.5,0.5-0.5h3 c0.276,0,0.5,0.224,0.5,0.5S55.226,42,54.949,42z M49.949,42h-5c-0.276,0-0.5-0.224-0.5-0.5s0.224-0.5,0.5-0.5h5 c0.276,0,0.5,0.224,0.5,0.5S50.226,42,49.949,42z" />
  </g>
  <g>
    <circle cx="43.152" cy="36.192" r="1.266" fill="#ededeb" />
    <path fill="#472b29" d="M43.152,37.708c-0.836,0-1.516-0.68-1.516-1.516s0.68-1.516,1.516-1.516s1.516,0.68,1.516,1.516 S43.988,37.708,43.152,37.708z M43.152,35.176c-0.56,0-1.016,0.456-1.016,1.016s0.456,1.016,1.016,1.016s1.016-0.456,1.016-1.016 S43.712,35.176,43.152,35.176z" />
  </g>
  <g>
    <circle cx="58.761" cy="36.192" r="1.266" fill="#ededeb" />
    <path fill="#472b29" d="M58.761,37.708c-0.836,0-1.516-0.68-1.516-1.516s0.68-1.516,1.516-1.516s1.516,0.68,1.516,1.516 S59.597,37.708,58.761,37.708z M58.761,35.176c-0.56,0-1.016,0.456-1.016,1.016s0.456,1.016,1.016,1.016s1.016-0.456,1.016-1.016 S59.32,35.176,58.761,35.176z" />
  </g>
  <g>
    <circle cx="64.192" cy="45.314" r=".896" fill="#55a7f9" />
    <path fill="#472b29" d="M64.192,46.336c-0.563,0-1.021-0.458-1.021-1.021s0.458-1.021,1.021-1.021s1.021,0.458,1.021,1.021 S64.756,46.336,64.192,46.336z M64.192,44.543c-0.426,0-0.771,0.346-0.771,0.771s0.346,0.771,0.771,0.771s0.771-0.346,0.771-0.771 S64.618,44.543,64.192,44.543z" />
    <circle cx="59.816" cy="45.314" r=".896" fill="#55a7f9" />
    <path fill="#472b29" d="M59.815,46.336c-0.563,0-1.021-0.458-1.021-1.021s0.458-1.021,1.021-1.021s1.021,0.458,1.021,1.021 S60.379,46.336,59.815,46.336z M59.815,44.543c-0.426,0-0.771,0.346-0.771,0.771s0.346,0.771,0.771,0.771s0.771-0.346,0.771-0.771 S60.241,44.543,59.815,44.543z" />
    <circle cx="55.439" cy="45.314" r=".896" fill="#55a7f9" />
    <path fill="#472b29" d="M55.438,46.336c-0.563,0-1.021-0.458-1.021-1.021s0.458-1.021,1.021-1.021 c0.563,0,1.021,0.458,1.021,1.021S56.002,46.336,55.438,46.336z M55.438,44.543c-0.425,0-0.771,0.346-0.771,0.771 s0.346,0.771,0.771,0.771c0.426,0,0.771-0.346,0.771-0.771S55.864,44.543,55.438,44.543z" />
    <circle cx="51.062" cy="45.314" r=".896" fill="#55a7f9" />
    <path fill="#472b29" d="M51.063,46.336c-0.563,0-1.021-0.458-1.021-1.021s0.458-1.021,1.021-1.021s1.021,0.458,1.021,1.021 S51.626,46.336,51.063,46.336z M51.063,44.543c-0.426,0-0.771,0.346-0.771,0.771s0.346,0.771,0.771,0.771s0.771-0.346,0.771-0.771 S51.488,44.543,51.063,44.543z" />
    <circle cx="46.686" cy="45.314" r=".896" fill="#55a7f9" />
    <path fill="#472b29" d="M46.686,46.336c-0.563,0-1.021-0.458-1.021-1.021s0.458-1.021,1.021-1.021s1.021,0.458,1.021,1.021 S47.249,46.336,46.686,46.336z M46.686,44.543c-0.426,0-0.771,0.346-0.771,0.771s0.346,0.771,0.771,0.771s0.771-0.346,0.771-0.771 S47.111,44.543,46.686,44.543z" />
    <circle cx="64.192" cy="50.008" r=".896" fill="#55a7f9" />
    <path fill="#472b29" d="M64.192,51.029c-0.563,0-1.021-0.458-1.021-1.021c0-0.563,0.458-1.021,1.021-1.021 s1.021,0.458,1.021,1.021C65.214,50.571,64.756,51.029,64.192,51.029z M64.192,49.236c-0.426,0-0.771,0.346-0.771,0.771 s0.346,0.771,0.771,0.771s0.771-0.346,0.771-0.771S64.618,49.236,64.192,49.236z" />
    <circle cx="59.816" cy="50.008" r=".896" fill="#55a7f9" />
    <path fill="#472b29" d="M59.815,51.029c-0.563,0-1.021-0.458-1.021-1.021c0-0.563,0.458-1.021,1.021-1.021 s1.021,0.458,1.021,1.021C60.837,50.571,60.379,51.029,59.815,51.029z M59.815,49.236c-0.426,0-0.771,0.346-0.771,0.771 s0.346,0.771,0.771,0.771s0.771-0.346,0.771-0.771S60.241,49.236,59.815,49.236z" />
    <circle cx="55.439" cy="50.008" r=".896" fill="#55a7f9" />
    <path fill="#472b29" d="M55.438,51.029c-0.563,0-1.021-0.458-1.021-1.021c0-0.563,0.458-1.021,1.021-1.021 c0.563,0,1.021,0.458,1.021,1.021C56.46,50.571,56.002,51.029,55.438,51.029z M55.438,49.236c-0.425,0-0.771,0.346-0.771,0.771 s0.346,0.771,0.771,0.771c0.426,0,0.771-0.346,0.771-0.771S55.864,49.236,55.438,49.236z" />
    <circle cx="51.062" cy="50.008" r=".896" fill="#55a7f9" />
    <path fill="#472b29" d="M51.063,51.029c-0.563,0-1.021-0.458-1.021-1.021c0-0.563,0.458-1.021,1.021-1.021 s1.021,0.458,1.021,1.021C52.084,50.571,51.626,51.029,51.063,51.029z M51.063,49.236c-0.426,0-0.771,0.346-0.771,0.771 s0.346,0.771,0.771,0.771s0.771-0.346,0.771-0.771S51.488,49.236,51.063,49.236z" />
    <circle cx="46.686" cy="50.008" r=".896" fill="#55a7f9" />
    <path fill="#472b29" d="M46.686,51.029c-0.563,0-1.021-0.458-1.021-1.021c0-0.563,0.458-1.021,1.021-1.021 s1.021,0.458,1.021,1.021C47.707,50.571,47.249,51.029,46.686,51.029z M46.686,49.236c-0.426,0-0.771,0.346-0.771,0.771 s0.346,0.771,0.771,0.771s0.771-0.346,0.771-0.771S47.111,49.236,46.686,49.236z" />
    <circle cx="42.309" cy="50.008" r=".896" fill="#55a7f9" />
    <path fill="#472b29" d="M42.309,51.029c-0.563,0-1.021-0.458-1.021-1.021c0-0.563,0.458-1.021,1.021-1.021 s1.021,0.458,1.021,1.021C43.33,50.571,42.872,51.029,42.309,51.029z M42.309,49.236c-0.426,0-0.771,0.346-0.771,0.771 s0.346,0.771,0.771,0.771s0.771-0.346,0.771-0.771S42.734,49.236,42.309,49.236z" />
    <circle cx="37.932" cy="50.008" r=".896" fill="#55a7f9" />
    <path fill="#472b29" d="M37.932,51.029c-0.563,0-1.021-0.458-1.021-1.021c0-0.563,0.458-1.021,1.021-1.021 c0.563,0,1.021,0.458,1.021,1.021C38.953,50.571,38.495,51.029,37.932,51.029z M37.932,49.236c-0.425,0-0.771,0.346-0.771,0.771 s0.346,0.771,0.771,0.771c0.426,0,0.771-0.346,0.771-0.771S38.357,49.236,37.932,49.236z" />
    <circle cx="64.192" cy="54.701" r=".896" fill="#55a7f9" />
    <path fill="#472b29" d="M64.192,55.722c-0.563,0-1.021-0.458-1.021-1.021s0.458-1.021,1.021-1.021s1.021,0.458,1.021,1.021 S64.756,55.722,64.192,55.722z M64.192,53.929c-0.426,0-0.771,0.346-0.771,0.771s0.346,0.771,0.771,0.771s0.771-0.346,0.771-0.771 S64.618,53.929,64.192,53.929z" />
    <circle cx="59.816" cy="54.701" r=".896" fill="#55a7f9" />
    <path fill="#472b29" d="M59.815,55.722c-0.563,0-1.021-0.458-1.021-1.021s0.458-1.021,1.021-1.021s1.021,0.458,1.021,1.021 S60.379,55.722,59.815,55.722z M59.815,53.929c-0.426,0-0.771,0.346-0.771,0.771s0.346,0.771,0.771,0.771s0.771-0.346,0.771-0.771 S60.241,53.929,59.815,53.929z" />
    <circle cx="55.439" cy="54.701" r=".896" fill="#55a7f9" />
    <path fill="#472b29" d="M55.438,55.722c-0.563,0-1.021-0.458-1.021-1.021s0.458-1.021,1.021-1.021 c0.563,0,1.021,0.458,1.021,1.021S56.002,55.722,55.438,55.722z M55.438,53.929c-0.425,0-0.771,0.346-0.771,0.771 s0.346,0.771,0.771,0.771c0.426,0,0.771-0.346,0.771-0.771S55.864,53.929,55.438,53.929z" />
    <circle cx="51.062" cy="54.701" r=".896" fill="#55a7f9" />
    <path fill="#472b29" d="M51.063,55.722c-0.563,0-1.021-0.458-1.021-1.021s0.458-1.021,1.021-1.021s1.021,0.458,1.021,1.021 S51.626,55.722,51.063,55.722z M51.063,53.929c-0.426,0-0.771,0.346-0.771,0.771s0.346,0.771,0.771,0.771s0.771-0.346,0.771-0.771 S51.488,53.929,51.063,53.929z" />
    <g>
      <circle cx="46.686" cy="54.701" r=".896" fill="#55a7f9" />
      <path fill="#472b29" d="M46.686,55.722c-0.563,0-1.021-0.458-1.021-1.021s0.458-1.021,1.021-1.021s1.021,0.458,1.021,1.021 S47.249,55.722,46.686,55.722z M46.686,53.929c-0.426,0-0.771,0.346-0.771,0.771s0.346,0.771,0.771,0.771s0.771-0.346,0.771-0.771 S47.111,53.929,46.686,53.929z" />
    </g>
    <g>
      <circle cx="42.309" cy="54.701" r=".896" fill="#55a7f9" />
      <path fill="#472b29" d="M42.309,55.722c-0.563,0-1.021-0.458-1.021-1.021s0.458-1.021,1.021-1.021s1.021,0.458,1.021,1.021 S42.872,55.722,42.309,55.722z M42.309,53.929c-0.426,0-0.771,0.346-0.771,0.771s0.346,0.771,0.771,0.771s0.771-0.346,0.771-0.771 S42.734,53.929,42.309,53.929z" />
    </g>
    <g>
      <circle cx="37.932" cy="54.701" r=".896" fill="#55a7f9" />
      <path fill="#472b29" d="M37.932,55.722c-0.563,0-1.021-0.458-1.021-1.021s0.458-1.021,1.021-1.021 c0.563,0,1.021,0.458,1.021,1.021S38.495,55.722,37.932,55.722z M37.932,53.929c-0.425,0-0.771,0.346-0.771,0.771 s0.346,0.771,0.771,0.771c0.426,0,0.771-0.346,0.771-0.771S38.357,53.929,37.932,53.929z" />
    </g>
    <g>
      <circle cx="64.192" cy="59.394" r=".896" fill="#55a7f9" />
      <path fill="#472b29" d="M64.192,60.415c-0.563,0-1.021-0.458-1.021-1.021c0-0.563,0.458-1.021,1.021-1.021 s1.021,0.458,1.021,1.021C65.214,59.957,64.756,60.415,64.192,60.415z M64.192,58.623c-0.426,0-0.771,0.346-0.771,0.771 s0.346,0.771,0.771,0.771s0.771-0.346,0.771-0.771S64.618,58.623,64.192,58.623z" />
    </g>
    <g>
      <circle cx="59.816" cy="59.394" r=".896" fill="#55a7f9" />
      <path fill="#472b29" d="M59.815,60.415c-0.563,0-1.021-0.458-1.021-1.021c0-0.563,0.458-1.021,1.021-1.021 s1.021,0.458,1.021,1.021C60.837,59.957,60.379,60.415,59.815,60.415z M59.815,58.623c-0.426,0-0.771,0.346-0.771,0.771 s0.346,0.771,0.771,0.771s0.771-0.346,0.771-0.771S60.241,58.623,59.815,58.623z" />
    </g>
    <g>
      <circle cx="55.439" cy="59.394" r=".896" fill="#55a7f9" />
      <path fill="#472b29" d="M55.438,60.415c-0.563,0-1.021-0.458-1.021-1.021c0-0.563,0.458-1.021,1.021-1.021 c0.563,0,1.021,0.458,1.021,1.021C56.46,59.957,56.002,60.415,55.438,60.415z M55.438,58.623c-0.425,0-0.771,0.346-0.771,0.771 s0.346,0.771,0.771,0.771c0.426,0,0.771-0.346,0.771-0.771S55.864,58.623,55.438,58.623z" />
    </g>
    <g>
      <circle cx="51.062" cy="59.394" r=".896" fill="#55a7f9" />
      <path fill="#472b29" d="M51.063,60.415c-0.563,0-1.021-0.458-1.021-1.021c0-0.563,0.458-1.021,1.021-1.021 s1.021,0.458,1.021,1.021C52.084,59.957,51.626,60.415,51.063,60.415z M51.063,58.623c-0.426,0-0.771,0.346-0.771,0.771 s0.346,0.771,0.771,0.771s0.771-0.346,0.771-0.771S51.488,58.623,51.063,58.623z" />
    </g>
    <g>
      <circle cx="46.686" cy="59.394" r=".896" fill="#55a7f9" />
      <path fill="#472b29" d="M46.686,60.415c-0.563,0-1.021-0.458-1.021-1.021c0-0.563,0.458-1.021,1.021-1.021 s1.021,0.458,1.021,1.021C47.707,59.957,47.249,60.415,46.686,60.415z M46.686,58.623c-0.426,0-0.771,0.346-0.771,0.771 s0.346,0.771,0.771,0.771s0.771-0.346,0.771-0.771S47.111,58.623,46.686,58.623z" />
    </g>
    <g>
      <circle cx="42.309" cy="59.394" r=".896" fill="#55a7f9" />
      <path fill="#472b29" d="M42.309,60.415c-0.563,0-1.021-0.458-1.021-1.021c0-0.563,0.458-1.021,1.021-1.021 s1.021,0.458,1.021,1.021C43.33,59.957,42.872,60.415,42.309,60.415z M42.309,58.623c-0.426,0-0.771,0.346-0.771,0.771 s0.346,0.771,0.771,0.771s0.771-0.346,0.771-0.771S42.734,58.623,42.309,58.623z" />
    </g>
    <g>
      <circle cx="37.932" cy="59.394" r=".896" fill="#55a7f9" />
      <path fill="#472b29" d="M37.932,60.415c-0.563,0-1.021-0.458-1.021-1.021c0-0.563,0.458-1.021,1.021-1.021 c0.563,0,1.021,0.458,1.021,1.021C38.953,59.957,38.495,60.415,37.932,60.415z M37.932,58.623c-0.425,0-0.771,0.346-0.771,0.771 s0.346,0.771,0.771,0.771c0.426,0,0.771-0.346,0.771-0.771S38.357,58.623,37.932,58.623z" />
    </g>
    <g>
      <circle cx="55.439" cy="64.087" r=".896" fill="#55a7f9" />
      <path fill="#472b29" d="M55.438,65.108c-0.563,0-1.021-0.458-1.021-1.021s0.458-1.021,1.021-1.021 c0.563,0,1.021,0.458,1.021,1.021S56.002,65.108,55.438,65.108z M55.438,63.315c-0.425,0-0.771,0.346-0.771,0.771 s0.346,0.771,0.771,0.771c0.426,0,0.771-0.346,0.771-0.771S55.864,63.315,55.438,63.315z" />
    </g>
    <g>
      <circle cx="51.062" cy="64.087" r=".896" fill="#55a7f9" />
      <path fill="#472b29" d="M51.063,65.108c-0.563,0-1.021-0.458-1.021-1.021s0.458-1.021,1.021-1.021s1.021,0.458,1.021,1.021 S51.626,65.108,51.063,65.108z M51.063,63.315c-0.426,0-0.771,0.346-0.771,0.771s0.346,0.771,0.771,0.771s0.771-0.346,0.771-0.771 S51.488,63.315,51.063,63.315z" />
    </g>
    <g>
      <circle cx="46.686" cy="64.087" r=".896" fill="#55a7f9" />
      <path fill="#472b29" d="M46.686,65.108c-0.563,0-1.021-0.458-1.021-1.021s0.458-1.021,1.021-1.021s1.021,0.458,1.021,1.021 S47.249,65.108,46.686,65.108z M46.686,63.315c-0.426,0-0.771,0.346-0.771,0.771s0.346,0.771,0.771,0.771s0.771-0.346,0.771-0.771 S47.111,63.315,46.686,63.315z" />
    </g>
    <g>
      <circle cx="42.309" cy="64.087" r=".896" fill="#55a7f9" />
      <path fill="#472b29" d="M42.309,65.108c-0.563,0-1.021-0.458-1.021-1.021s0.458-1.021,1.021-1.021s1.021,0.458,1.021,1.021 S42.872,65.108,42.309,65.108z M42.309,63.315c-0.426,0-0.771,0.346-0.771,0.771s0.346,0.771,0.771,0.771s0.771-0.346,0.771-0.771 S42.734,63.315,42.309,63.315z" />
    </g>
    <g>
      <circle cx="37.932" cy="64.087" r=".896" fill="#55a7f9" />
      <path fill="#472b29" d="M37.932,65.108c-0.563,0-1.021-0.458-1.021-1.021s0.458-1.021,1.021-1.021 c0.563,0,1.021,0.458,1.021,1.021S38.495,65.108,37.932,65.108z M37.932,63.315c-0.425,0-0.771,0.346-0.771,0.771 s0.346,0.771,0.771,0.771c0.426,0,0.771-0.346,0.771-0.771S38.357,63.315,37.932,63.315z" />
    </g>
  </g>
  <g>
    <path fill="#472b29" d="M69.425,39.917c-0.138,0-0.25-0.112-0.25-0.25v-0.5c0-0.138,0.112-0.25,0.25-0.25 s0.25,0.112,0.25,0.25v0.5C69.675,39.805,69.563,39.917,69.425,39.917z M32.542,39.917c-0.138,0-0.25-0.112-0.25-0.25v-4.108 c0-2.403,1.994-4.358,4.445-4.358h28.492c0.758,0,1.506,0.19,2.164,0.551c0.121,0.066,0.165,0.218,0.1,0.339 c-0.067,0.122-0.22,0.165-0.34,0.099c-0.584-0.32-1.25-0.489-1.924-0.489H36.737c-2.176,0-3.945,1.731-3.945,3.858v4.108 C32.792,39.805,32.68,39.917,32.542,39.917z M69.425,37.417c-0.138,0-0.25-0.112-0.25-0.25v-1.608c0-0.44-0.074-0.871-0.222-1.28 c-0.047-0.13,0.021-0.273,0.15-0.32c0.131-0.045,0.272,0.021,0.32,0.151c0.167,0.464,0.251,0.951,0.251,1.449v1.608 C69.675,37.305,69.563,37.417,69.425,37.417z" />
  </g>
</svg>