<svg xmlns="http://www.w3.org/2000/svg" viewBox="0 0 100 100" width="50px" height="50px" baseProfile="basic">
  <circle cx="13" cy="29" r="2" fill="#ee3e54" />
  <circle cx="77" cy="13" r="1" fill="#f1bc19" />
  <circle cx="50" cy="50" r="37" fill="#fce0a2" />
  <circle cx="83" cy="15" r="4" fill="#f1bc19" />
  <circle cx="87" cy="24" r="2" fill="#ee3e54" />
  <circle cx="81" cy="76" r="2" fill="#fbcd59" />
  <circle cx="15" cy="63" r="4" fill="#fbcd59" />
  <circle cx="25" cy="87" r="2" fill="#ee3e54" />
  <circle cx="18.5" cy="53.5" r="2.5" fill="#fff" />
  <circle cx="21" cy="67" r="1" fill="#f1bc19" />
  <circle cx="80" cy="34" r="1" fill="#fff" />
  <g>
    <circle cx="50" cy="50" r="24" fill="#78a2d2" />
    <path fill="#472b29" d="M60.725,32.062c-0.044,0-0.088-0.012-0.128-0.035c-0.432-0.256-0.893-0.506-1.369-0.743 c-0.124-0.062-0.174-0.211-0.112-0.335c0.061-0.123,0.21-0.173,0.335-0.112c0.487,0.242,0.959,0.498,1.402,0.761 c0.118,0.07,0.157,0.224,0.087,0.343C60.893,32.018,60.81,32.062,60.725,32.062z" />
    <path fill="#472b29" d="M62.804,33.462c-0.053,0-0.106-0.017-0.151-0.052c-0.226-0.171-0.454-0.338-0.686-0.5 c-0.113-0.079-0.141-0.235-0.062-0.349c0.08-0.113,0.235-0.14,0.349-0.062c0.237,0.166,0.472,0.337,0.701,0.514 c0.11,0.083,0.131,0.24,0.047,0.35C62.953,33.428,62.879,33.462,62.804,33.462z" />
    <path fill="#472b29" d="M49.985,71.396c-11.79,0-21.382-9.592-21.382-21.382s9.592-21.382,21.382-21.382 c2.529,0,5.006,0.438,7.361,1.301c0.13,0.047,0.196,0.19,0.148,0.32c-0.047,0.13-0.19,0.197-0.32,0.148 c-2.3-0.842-4.719-1.27-7.189-1.27c-11.515,0-20.882,9.367-20.882,20.882s9.367,20.882,20.882,20.882s20.882-9.367,20.882-20.882 c0-5.875-2.495-11.51-6.846-15.461c-0.103-0.094-0.11-0.251-0.018-0.354c0.093-0.102,0.251-0.109,0.354-0.018 c4.455,4.046,7.01,9.816,7.01,15.832C71.367,61.805,61.775,71.396,49.985,71.396z" />
    <path fill="#472b29" d="M50,74.95c-13.758,0-24.95-11.192-24.95-24.95S36.242,25.05,50,25.05S74.95,36.242,74.95,50 S63.758,74.95,50,74.95z M50,26.45c-12.985,0-23.55,10.564-23.55,23.55S37.015,73.55,50,73.55S73.55,62.985,73.55,50 S62.985,26.45,50,26.45z" />
  </g>
  <g>
    <path fill="#fdfcee" d="M52.3,58.2c0,0.9,1,1.4,3,1.4v1.8H44.7v-1.8c2,0,3-0.5,3-1.4v-9.6c0-1-1-1.5-3-1.5v-1.8h7.7v12.9 H52.3z M52.8,40.1c0,0.7-0.3,1.4-0.8,1.9s-1.3,0.8-2.1,0.8c-0.4,0-0.8-0.1-1.2-0.2c-0.4-0.1-0.7-0.3-0.9-0.6s-0.5-0.5-0.6-0.9 C47,40.8,47,40.4,47,40c0-0.8,0.3-1.4,0.9-1.9c0.6-0.5,1.3-0.8,2.1-0.8s1.5,0.3,2.1,0.8C52.5,38.7,52.8,39.3,52.8,40.1z" />
    <path fill="#472b29" d="M55.8,62H44.2v-2.8h0.5c1.1,0,2.5-0.2,2.5-0.9v-9.6c0-0.8-1.3-1-2.5-1h-0.5v-2.8h8.7v13.4 c0,0.2,0,0.3,0.1,0.4c0.2,0.2,0.7,0.5,2.4,0.5h0.5V62H55.8z M45.2,61h9.7v-0.8c-1.3-0.1-2.1-0.3-2.6-0.8c-0.3-0.3-0.4-0.7-0.4-1.1 V45.9h-6.7v0.8c2,0.1,3,0.7,3,1.9v9.6c0,1.2-1,1.8-3,1.9V61z M49.8,43.3c-0.5,0-0.9-0.1-1.3-0.3c-0.4-0.2-0.8-0.4-1.1-0.7 s-0.6-0.6-0.7-1c-0.2-0.4-0.3-0.8-0.3-1.3c0-0.9,0.4-1.7,1-2.3c0.7-0.6,1.5-0.9,2.4-0.9s1.7,0.3,2.4,0.9c0.7,0.6,1,1.4,1,2.3 c0,0.9-0.3,1.6-1,2.3C51.6,43,50.8,43.3,49.8,43.3z M49.8,37.9c-0.7,0-1.3,0.2-1.8,0.6c-0.5,0.4-0.7,0.9-0.7,1.5 c0,0.3,0.1,0.6,0.2,0.8c0.1,0.3,0.3,0.5,0.5,0.7s0.5,0.4,0.8,0.5s0.6,0.2,1,0.2c0.7,0,1.3-0.2,1.7-0.7c0.5-0.4,0.7-0.9,0.7-1.5 s-0.2-1.1-0.7-1.5C51.1,38.1,50.5,37.9,49.8,37.9z" />
  </g>
</svg>