<svg xmlns="http://www.w3.org/2000/svg" enable-background="new 0 0 93 93" viewBox="0 0 93 93" id="PhoneBook"><path fill="#87ddfd" d="M16.7179871,65.5197906c0.9414463,4.8239594-2.2717295,9.5426559-2.2383938,14.4661713
			c0.0082779,1.3755951,0.2749615,2.6850662,0.7262201,3.9160767l-0.0107393,0.0032425
			c0.5121126,1.7417221,1.1618176,3.4442291,1.9296513,5.0930481H78.124054
			c2.0730591-2.617836,3.1393433-5.9565277,2.3531647-9.1761856c-0.8425598-3.4176636-3.5257187-6.1776276-4.1953354-9.6357269
			c-0.941452-4.8242416,2.2717285-9.5429344,2.2276535-14.4632607c-0.0105133-1.6527901-0.3888397-3.2182121-1.0336227-4.6686935
			l0.0955353-0.0288048c-0.9922333-3.106514-2.4093246-6.0850563-4.1810226-8.8180542
			c-2.2618866-3.4770622-5.222702-6.6978455-9.0786438-8.2364197c-3.8559456-1.538353-8.7197838-1.0366974-11.5398712,2.0234489
			c-1.675045,1.8239365-2.5006027,4.3540192-4.4072075,5.9465103c-3.6116333,3.0089684-8.9784126,1.2993546-13.5489426,0.1956482
			c-5.1103859-1.2421913-10.7138672-1.4674263-15.4179649,0.8738251c-4.7040958,2.3414764-8.1239958,7.7593193-6.8751488,12.8731728
			C13.3513355,59.294239,16.0483723,62.0614128,16.7179871,65.5197906z" class="colorc3f7fc svgShape"></path><path fill="#ffffff" d="M20.4714775,23.9195442v62.2555504c0,1.7836227,1.4459133,3.229538,3.2295399,3.229538h45.2135391
					c1.7836227,0,3.229538-1.4459152,3.229538-3.229538V23.9195442c0-1.7836246-1.4459152-3.2295399-3.229538-3.2295399H23.7010174
					C21.9173908,20.6900043,20.4714775,22.1359196,20.4714775,23.9195442z" class="colorffffff svgShape"></path><path fill="#0096ce" d="M77.2227554,50.145298v4.021328c0,1.3987122-0.5661926,2.6725197-1.4902344,3.5883751
					c-0.9159088,0.9158096-2.181427,1.490284-3.5884247,1.490284V48.4801559h3.4135208
					C76.4734192,48.4801559,77.2227554,49.2211571,77.2227554,50.145298z" class="color00ce4a svgShape"></path><path fill="#00bbff" d="M77.2227554,61.9115753v4.0213318c0,1.3987122-0.5661926,2.6725159-1.4902344,3.5883713
					c-0.9159088,0.9158096-2.181427,1.4902878-3.5884247,1.4902878V60.2464333h3.4135208
					C76.4734192,60.2464333,77.2227554,60.9874344,77.2227554,61.9115753z" class="colorff6700 svgShape"></path><path fill="#4f97b1" d="M77.2227554,73.3607254v4.0213318c0,1.3987122-0.5661926,2.6725159-1.4902344,3.5883789
					c-0.9159088,0.915802-2.181427,1.4902802-3.5884247,1.4902802V71.6955872h3.4135208
					C76.4734192,71.6955872,77.2227554,72.4365845,77.2227554,73.3607254z" class="color15bdff svgShape"></path><circle cx="25.697" cy="33.014" r="2.691" fill="#d3dfe3" class="colord3dce3 svgShape"></circle><circle cx="25.697" cy="47.703" r="2.691" fill="#d3dfe3" class="colord3dce3 svgShape"></circle><circle cx="25.697" cy="62.392" r="2.691" fill="#d3dfe3" class="colord3dce3 svgShape"></circle><circle cx="25.697" cy="77.081" r="2.691" fill="#d3dfe3" class="colord3dce3 svgShape"></circle><g fill="#000000" class="color000000 svgShape"><rect width="4.673" height="68.715" x="31.037" y="20.69" fill="#0096ce" class="color00ce4a svgShape"></rect></g><path fill="#d1d1d1" d="M65.2340927,57.9357796c0,2.0848427-1.6842079,3.7690506-3.7616653,3.7690506
				c-10.4168205,0-18.8526382-8.4432411-18.8526382-18.8525887c0-2.0774574,1.6842117-3.7690506,3.7615814-3.7690506
				c0.2448959,0,0.4823685,0.0222359,0.7123184,0.0667953c-0.0074234,0.0073814-0.0074234,0.0148048-0.0074234,0.0222321
				l1.795517,6.48452c-0.4971313,0.4451904-1.1054764,0.7567902-1.7880936,0.8903313
				c1.335434,5.2306442,5.4532166,9.3410034,10.6764793,10.6839066c0.1334991-0.6900406,0.4525719-1.3132401,0.9051437-1.8103256
				l6.4845161,1.7731934c0,0.0074272,0.007431,0.0222816,0.007431,0.0371323
				C65.2118149,57.4609756,65.2340927,57.6909752,65.2340927,57.9357796z" class="colord1d1d1 svgShape"></path><g fill="#000000" class="color000000 svgShape"><path d="M10.2744198 88.9047852H1.5000061c-.2763672 0-.5.2236328-.5.5s.2236328.5.5.5h8.7744141c.2763672 0 .5-.2236328.5-.5S10.550787 88.9047852 10.2744198 88.9047852zM91.5000076 88.9047852h-8.7744141c-.2763672 0-.5.2236328-.5.5s.2236328.5.5.5h8.7744141c.2763672 0 .5-.2236328.5-.5S91.7763748 88.9047852 91.5000076 88.9047852zM79.1523514 88.9047852h-7.7145996c.7371826-.6817627 1.2067871-1.6484375 1.2067871-2.7294922v-3.2634277c2.9400482-.2640457 5.078125-2.6782227 5.078125-5.5300293v-4.0209961c0-1.1938477-.9716797-2.1650391-2.1650391-2.1650391h-1.6318359c2.3630219-.8010101 3.796875-2.9249344 3.796875-5.2626953v-4.0214844c0-1.1938477-.9716797-2.1650391-2.1650391-2.1650391h-2.9130859V59.696106c2.9465256-.2644844 5.078125-2.6834869 5.078125-5.5296021v-4.0209961c0-1.1938477-.9716797-2.1655273-2.1650391-2.1655273h-2.9130859V23.9194336c0-2.0566406-1.6728516-3.7294922-3.7294922-3.7294922-13.6753998 0-30.9877205 0-45.2138672 0-2.0566406 0-3.7294922 1.6728516-3.7294922 3.7294922v8.5942383h-2.5595703c-.2763672 0-.5.2236328-.5.5s.2236328.5.5.5h2.5595703v13.6889648h-2.5595703c-.2763672 0-.5.2236328-.5.5s.2236328.5.5.5h2.5595703v13.6894531h-2.5595703c-.2763672 0-.5.2236328-.5.5s.2236328.5.5.5h2.5595703v13.6889648h-2.5595703c-.2763672 0-.5.2236328-.5.5s.2236328.5.5.5h2.5595703v8.5942383c0 1.0810547.4696045 2.0477295 1.2067871 2.7294922H13.847662c-.2763672 0-.5.2236328-.5.5s.2236328.5.5.5c19.5292912 0 35.3677902 0 55.0673828 0h10.2373047c.2763672 0 .5-.2236328.5-.5S79.4287186 88.9047852 79.1523514 88.9047852zM76.7226639 73.3608398v4.0209961c0 2.4388046-1.871315 4.3116913-4.078125 4.5522461v-9.7382813h2.9130859C76.2002029 72.1958008 76.7226639 72.7182617 76.7226639 73.3608398zM75.5576248 60.746582c.6425781 0 1.1650391.5224609 1.1650391 1.1650391v4.0214844c0 2.4422073-1.8758774 4.3116989-4.078125 4.5517578V60.746582H75.5576248zM75.5576248 48.9799805c.6425781 0 1.1650391.5229492 1.1650391 1.1655273v4.0209961c0 2.4426117-1.8757248 4.3116837-4.078125 4.5517578v-9.7382813H75.5576248zM23.7011776 88.9047852c-1.5048828 0-2.7294922-1.2246094-2.7294922-2.7294922v-8.5942383h4.7255859c.2763672 0 .5-.2236328.5-.5s-.2236328-.5-.5-.5h-4.7255859V62.8920898h4.7255859c.2763672 0 .5-.2236328.5-.5s-.2236328-.5-.5-.5h-4.7255859V48.2026367h4.7255859c.2763672 0 .5-.2236328.5-.5s-.2236328-.5-.5-.5h-4.7255859V33.5136719h4.7255859c.2763672 0 .5-.2236328.5-.5s-.2236328-.5-.5-.5h-4.7255859v-8.5942383c0-1.5048828 1.2246094-2.7294922 2.7294922-2.7294922h6.8359375v67.7148438H23.7011776zM31.5371151 88.9047852V21.1899414h3.6728535v67.7148438H31.5371151zM36.2099686 88.9047852V21.1899414h32.7050781c1.5048828 0 2.7294922 1.2246094 2.7294922 2.7294922 0 20.8193855 0 39.1591873 0 62.2558594 0 1.5048828-1.2246094 2.7294922-2.7294922 2.7294922H36.2099686z" fill="#000000" class="color000000 svgShape"></path><path d="M65.6533279 57.1083984c-.0332031-.1884766-.171875-.3452148-.3613281-.3969727l-6.484375-1.7734375c-.1835938-.0483398-.375.0063477-.5019531.1459961-.4023438.4418945-.7050781.9638672-.890625 1.5302734-4.6816406-1.3769531-8.3388672-5.0375977-9.7060547-9.7128906.5546875-.1831055 1.0683594-.4794922 1.5068359-.8720703.1416016-.1269531.1982422-.3227539.1474609-.5058594-2.446312-8.9088783-1.5979805-5.8672943-1.7890625-6.512207-.0527344-.1806641-.2011719-.3168945-.3857422-.3520508-2.6194992-.5082626-5.0683594 1.5147438-5.0683594 4.1928711 0 10.6708984 8.6816406 19.3525391 19.3525391 19.3525391 2.3496094 0 4.2617188-1.9150391 4.2617188-4.269043 0-.2744141-.0253906-.5366211-.0673828-.7045898C65.6669998 57.1972656 65.6611404 57.1484375 65.6533279 57.1083984zM61.4726639 61.2045898c-10.1191406 0-18.3525391-8.2329102-18.3525391-18.3525391 0-1.9197731 1.6519737-3.4334946 3.5644531-3.2553711l1.6279297 5.8793945c-.3886719.2880859-.8378906.4868164-1.3144531.5800781-.1347656.0263672-.2529297.1069336-.3271484.2236328-.0732422.1162109-.0957031.2573242-.0615234.390625 1.3828125 5.4179688 5.6113281 9.6503906 11.0371094 11.0449219.1328125.0322266.2744141.012207.3916016-.0620117.1162109-.0737305.1972656-.1923828.2236328-.3276367.09375-.4882813.296875-.9453125.5927734-1.3378906l5.8613281 1.6030273c.0126953.112793.0185547.2270508.0185547.3447266C64.7343826 59.7382813 63.271492 61.2045898 61.4726639 61.2045898zM53.6474686 38.5830078v1c6.1005859.0024414 11.0742188 4.9580078 11.0869141 11.046875l1-.0019531C65.7197342 43.9887695 60.2978592 38.5854492 53.6474686 38.5830078z" fill="#000000" class="color000000 svgShape"></path><path d="M59.3164139,50.628418l1-0.0019531c-0.0078125-3.6577148-2.9941406-6.6342773-6.6582031-6.6352539v1
						C56.771492,44.9921875,59.3105545,47.5209961,59.3164139,50.628418z" fill="#000000" class="color000000 svgShape"></path><rect width="3.163" height="1" x="60.676" y="73.259" fill="#000000" class="color000000 svgShape"></rect><rect width="5.062" height="1" x="51.817" y="73.259" fill="#000000" class="color000000 svgShape"></rect><rect width="4.757" height="1" x="44.015" y="73.259" fill="#000000" class="color000000 svgShape"></rect></g><path fill="#00bbff" d="M59.5488358,5.0952148h-1.75v-1.75c0-0.1381836-0.1123047-0.25-0.25-0.25s-0.25,0.1118164-0.25,0.25v1.75
			h-1.75c-0.1376953,0-0.25,0.1118164-0.25,0.25s0.1123047,0.25,0.25,0.25h1.75v1.75c0,0.1381836,0.1123047,0.25,0.25,0.25
			s0.25-0.1118164,0.25-0.25v-1.75h1.75c0.1376953,0,0.25-0.1118164,0.25-0.25S59.6865311,5.0952148,59.5488358,5.0952148z" class="colorff6700 svgShape"></path><path fill="#94daf4" d="M35.8916092,9.1977539h-1.75v-1.75c0-0.1381836-0.1123047-0.25-0.25-0.25s-0.25,0.1118164-0.25,0.25v1.75
			h-1.7500019c-0.1376953,0-0.25,0.1118164-0.25,0.25s0.1123047,0.25,0.25,0.25h1.7500019v1.75
			c0,0.1381836,0.1123047,0.25,0.25,0.25s0.25-0.1118164,0.25-0.25v-1.75h1.75c0.1376953,0,0.25-0.1118164,0.25-0.25
			S36.0293045,9.1977539,35.8916092,9.1977539z" class="colorf49497 svgShape"></path><path fill="#0096ce" d="M81.3173904,25.934082h-1.75v-1.75c0-0.1381836-0.1123047-0.25-0.25-0.25s-0.25,0.1118164-0.25,0.25v1.75
			h-1.75c-0.1376953,0-0.25,0.1118164-0.25,0.25s0.1123047,0.25,0.25,0.25h1.75v1.75c0,0.1381836,0.1123047,0.25,0.25,0.25
			s0.25-0.1118164,0.25-0.25v-1.75h1.75c0.1376953,0,0.25-0.1118164,0.25-0.25S81.4550858,25.934082,81.3173904,25.934082z" class="color00ce4a svgShape"></path><path fill="#2c7c9a" d="M12.2636776,22.4399414h-1.75v-1.75c0-0.1381836-0.1123047-0.25-0.25-0.25s-0.25,0.1118164-0.25,0.25v1.75
			h-1.75c-0.1376953,0-0.25,0.1118164-0.25,0.25s0.1123047,0.25,0.25,0.25h1.75v1.75c0,0.1381836,0.1123047,0.25,0.25,0.25
			s0.25-0.1118164,0.25-0.25v-1.75h1.75c0.1376953,0,0.25-0.1118164,0.25-0.25S12.4013729,22.4399414,12.2636776,22.4399414z" class="color3d6da2 svgShape"></path></svg>