<svg xmlns="http://www.w3.org/2000/svg" viewBox="0 0 100 100" width="50px" height="50px">
  <path fill="#fff" d="M22.064 57.586A0.886 0.886 0 1 0 22.064 59.358000000000004A0.886 0.886 0 1 0 22.064 57.586Z" />
  <path fill="#f1bc19" d="M22.559 65.26A0.886 0.886 0 1 0 22.559 67.032A0.886 0.886 0 1 0 22.559 65.26Z" />
  <path fill="#c0e5e4" d="M51.599 14.353000000000002A37.445 37.445 0 1 0 51.599 89.243A37.445 37.445 0 1 0 51.599 14.353000000000002Z" />
  <path fill="#fbcd59" d="M78.947 76.324A1.884 1.884 0 1 0 78.947 80.092 1.884 1.884 0 1 0 78.947 76.324zM15.786 61.254A4.007 4.007 0 1 0 15.786 69.268 4.007 4.007 0 1 0 15.786 61.254z" />
  <path fill="#00a5a5" d="M26.025 87.511A1.884 1.884 0 1 0 26.025 91.279A1.884 1.884 0 1 0 26.025 87.511Z" />
  <path fill="#fff" d="M19.528 50.61000000000001A2.541 2.541 0 1 0 19.528 55.692A2.541 2.541 0 1 0 19.528 50.61000000000001Z" />
  <path fill="#d8ad8f" d="M66.699,69.976c-0.74-0.517-10.23-3.802-10.23-3.802c-0.603-0.16-0.939-0.648-1.046-1.193 c-0.13-0.658-0.197-1.71-0.232-2.751c2.555-1.402,4.557-3.457,6.123-6.005c0.26-0.423,0.464-1.185,0.469-1.68 c0.01-0.983,0.01-1.967,0.012-2.95c0.606-0.085,1.025-0.43,1.264-1.184c0.395-1.245,0.983-3.843,0.991-3.865 c0.529-1.613-0.256-2.446-1.79-2.416c0.191-0.119,0.778-0.718,1.01-1.181c0.037,0.001,0.073,0.006,0.11,0.006 c0.15,0,0.296-0.013,0.44-0.031c2.019,0.651,5.095,0.254,5.904-4.487c-0.742,0.952-1.974,1.355-3.008,1.262 c-0.007-0.431-0.102-0.842-0.271-1.215c0.598-0.559,0.97-1.339,0.97-2.203c0-1.701-1.438-3.08-3.211-3.08 c-0.013,0-0.025,0.002-0.038,0.002c0.124-0.377,0.192-0.778,0.192-1.195c0-2.186-1.847-3.957-4.126-3.957 c-0.392,0-0.769,0.056-1.128,0.153c0.002-0.051,0.008-0.102,0.008-0.153c0-2.59-2.306-4.689-5.151-4.689 c-1.644,0-3.105,0.704-4.049,1.796c-1.049-0.657-2.367-1.052-3.803-1.052c-3.412,0-6.178,2.212-6.178,4.94 c0,0.12,0.012,0.239,0.023,0.357c-0.802,0.384-1.419,1.009-1.691,1.818c-0.268,0.796,0.611,3.021,0.578,3.1l0,0 c-0.224,0.002-2.366,0.159-1.893,2.348c0.102,0.474,0.869,7.256,1.278,7.456c-1.534-0.03-2.315,0.808-1.786,2.42 c0.007,0.023,0.596,2.62,0.991,3.865c0.266,0.838,0.752,1.172,1.471,1.203c0.007,0.831,0.009,1.662-0.027,2.491 c-0.045,1.043,0.269,1.954,0.855,2.802c1.496,2.167,3.386,3.938,5.675,5.272c-0.035,1.042-0.102,2.108-0.229,2.804 c-0.1,0.547-0.443,1.033-1.046,1.193l-7.758,2.665c-0.777,0.213-1.523,0.516-2.178,0.94c-3.425,2.212-3.627,6.617-3.56,6.867 h19.667h19.667C70.032,76.395,69.882,72.2,66.699,69.976z" />
  <path fill="#efa21b" d="M55.349,39.315c0.678,1.353,2.148,2.293,3.857,2.293c0.418,0,0.822-0.059,1.204-0.163 c0.599,0.709,1.525,1.166,2.569,1.166c0.146,0,0.289-0.012,0.431-0.029c1.895,0.594,4.982,0.954,5.913-3.044 c-0.715,0.542-2.052,0.687-2.667,0.305c-0.007-0.424-0.109-1.128-0.276-1.496c0.594-0.55,0.963-1.317,0.963-2.167 c0-1.673-1.429-3.029-3.191-3.029c-0.013,0-0.025,0.002-0.038,0.002c0.124-0.371,0.191-0.765,0.191-1.175 c0-2.149-1.836-3.892-4.1-3.892c-0.389,0-0.765,0.055-1.121,0.151c0.002-0.051,0.008-0.1,0.008-0.151 c0-2.547-2.292-4.611-5.119-4.611c-1.634,0-3.086,0.692-4.023,1.766c-1.042-0.646-2.352-1.035-3.779-1.035 c-3.39,0-6.138,2.175-6.138,4.858c0,0.118,0.012,0.235,0.022,0.351c-0.797,0.378-1.41,0.993-1.681,1.787 c-0.018,0.053,0.49,2.69,0.564,2.988c0.547,0.711,1.387,1.299,2.427,1.611c1.064,0.32,2.139,0.293,3.043-0.005 c0.75,2.5,3.643,4.364,7.1,4.364C52.918,40.162,54.234,39.852,55.349,39.315z" />
  <path fill="#b2876b" d="M50.294,76.553h19.531c0.066-0.241-0.083-4.288-3.244-6.434c-0.735-0.499-10.159-3.668-10.159-3.668 c-0.599-0.155-0.989-0.589-1.214-1.077c-0.372-0.807-0.211-3.252-0.211-3.252s-2.328,1.408-4.224,1.768 c-1.86,0.184-5.059-1.619-5.059-1.619s-0.164,2.381-0.291,3.052c-0.099,0.527-0.658,0.973-1.257,1.128l-7.704,2.571 c-0.771,0.205-1.512,0.498-2.163,0.907c-3.401,2.134-3.602,6.383-3.535,6.624H50.294z" />
  <path fill="#00a5a5" d="M51.683,88.939c6.789,0,13.15-1.816,18.641-4.975c-0.211-7.658-0.002-12.745-3.768-13.902 c-0.825-0.253-3.931-1.75-3.931-1.75s-8.044,4.501-11.529,5.211c-5.57,1.136-12.95,1.798-20.106,1.06 c-0.074,0.307-0.198,5.701-0.326,7.901C36.657,86.558,43.891,88.939,51.683,88.939z" />
  <path fill="#6d3c14" d="M39.239,34.718c-0.191,0.033-0.538,0.165-0.689,0.195c-1.204,0.234-1.099,1.251-1.099,1.251 l1.133,7.276c0.037-0.629,0.195-6.238,1.981-7.77C40.471,35.624,39.325,34.882,39.239,34.718z" opacity=".34" />
  <path fill="#472b29" d="M48.396 43.171c-1.999-.567-5.397-.712-7.419-.388-.115.019-.197.101-.196.198.001.096.085.178.2.195.041.006 5.091.609 6.678 1.078.027.008.055.012.082.012.079 0 .156-.032.202-.088l.576-.705c.042-.052.053-.116.028-.175C48.524 43.238 48.468 43.192 48.396 43.171zM52.386 43.171c1.999-.567 5.397-.712 7.419-.388.115.019.197.101.196.198-.001.096-.085.178-.2.195-.041.006-5.091.609-6.678 1.078-.027.008-.055.012-.082.012-.079 0-.156-.032-.202-.088l-.576-.705c-.042-.052-.053-.116-.028-.175C52.259 43.238 52.315 43.192 52.386 43.171zM44.872 45.431c-.503 0-.944.329-1.199.825.064-.019.129-.033.199-.033.412 0 .747.369.747.823s-.334.823-.747.823c-.135 0-.26-.043-.369-.112.176.746.723 1.289 1.37 1.289.79 0 1.43-.809 1.43-1.808C46.302 46.24 45.662 45.431 44.872 45.431zM55.816 45.431c-.429 0-.813.24-1.075.618.082-.034.17-.055.263-.055.412 0 .747.369.747.823 0 .455-.334.823-.747.823-.256 0-.481-.142-.616-.358.019.978.65 1.764 1.428 1.764.79 0 1.43-.809 1.43-1.808C57.246 46.24 56.606 45.431 55.816 45.431z" />
  <path fill="#472b29" d="M50.317,54.74c0.836,0,1.647-0.361,2.171-0.967c0.117-0.136,0.101-0.343-0.037-0.46 c-0.138-0.116-0.346-0.101-0.463,0.033c-0.36,0.407-0.969,0.64-1.671,0.64s-1.31-0.233-1.671-0.64 c-0.114-0.129-0.327-0.147-0.464-0.032c-0.137,0.116-0.153,0.323-0.035,0.459C48.67,54.378,49.481,54.74,50.317,54.74z" opacity=".41" />
  <path fill="#472b29" d="M50.582,64.013c-1.969,0-5.141-1.777-5.282-1.856c-0.12-0.068-0.163-0.221-0.095-0.341 c0.068-0.121,0.22-0.161,0.341-0.095c0.035,0.02,3.498,1.982,5.271,1.78c1.794-0.182,4.397-1.799,4.424-1.815 c0.117-0.071,0.271-0.036,0.344,0.079c0.073,0.117,0.038,0.271-0.08,0.345c-0.11,0.069-2.729,1.695-4.638,1.89 C50.776,64.008,50.68,64.013,50.582,64.013z" />
  <path fill="#e2900e" d="M66.654,39.731c-0.007-0.421-0.109-1.121-0.276-1.486c0.594-0.546,0.963-1.308,0.963-2.152 c0-1.661-1.429-3.008-3.191-3.008c-0.013,0-0.025,0.002-0.038,0.002c0.124-0.368,0.191-0.76,0.191-1.167 c0-2.135-1.836-3.865-4.1-3.865c-0.389,0-0.764,0.054-1.121,0.15c0.002-0.05,0.008-0.099,0.008-0.15 c0-2.529-2.292-4.579-5.119-4.579c-1.272,0-2.43,0.42-3.324,1.108c0.419,0.425,0.142-0.058,0.419,0.425 c1.337-0.491,3.6-0.173,5.035,0.603c2.482,1.343,3.486,4.942,2.267,7.163c-0.024,0.044-0.054,0.084-0.08,0.128 c0.359,0.086,0.715,0.216,1.057,0.401c1.988,1.076,2.767,3.468,1.738,5.342c-0.196,0.357-0.444,0.669-0.73,0.934 c0.011,0.006,0.023,0.01,0.034,0.016c1.076,0.583,1.683,1.661,1.691,2.754c0.287,0.077,0.585,0.129,0.899,0.129 c0.146,0,0.289-0.012,0.431-0.029c1.895,0.59,4.982,0.948,5.913-3.023C68.606,39.966,67.27,40.11,66.654,39.731z" />
  <path fill="#472b29" d="M65.382,43.383c-0.778,0-1.538-0.195-1.948-0.51c-1.117,0.104-2.265-0.313-3.023-1.115 c-2.013,0.467-4.138-0.43-5.119-2.079c-1.138,0.498-2.424,0.76-3.737,0.76c-3.438,0-6.404-1.753-7.339-4.3 c-0.933,0.244-1.97,0.22-2.955-0.077c-1.198-0.358-2.188-1.063-2.788-1.981c-0.09-0.139-0.051-0.325,0.087-0.415 c0.139-0.092,0.324-0.053,0.416,0.087c0.522,0.801,1.395,1.417,2.457,1.735c0.97,0.289,1.994,0.288,2.882-0.003 c0.077-0.025,0.16-0.02,0.232,0.02c0.072,0.037,0.125,0.102,0.148,0.179c0.726,2.408,3.61,4.156,6.859,4.156 c1.324,0,2.616-0.283,3.736-0.819c0.146-0.073,0.324-0.011,0.397,0.136c0.812,1.611,2.853,2.49,4.746,1.979 c0.111-0.032,0.232,0.006,0.307,0.095c0.657,0.773,1.732,1.155,2.755,1.034c0.093-0.015,0.183,0.021,0.248,0.087 c0.356,0.36,1.941,0.668,2.937,0.172c0.147-0.076,0.328-0.015,0.402,0.135c0.074,0.148,0.014,0.328-0.135,0.402 C66.498,43.284,65.935,43.383,65.382,43.383z" />
  <path fill="#ba8964" d="M43.262 51.248A1.957 1.987 0 1 0 43.262 55.222 1.957 1.987 0 1 0 43.262 51.248zM58.315 51.248A1.957 1.987 0 1 0 58.315 55.222 1.957 1.987 0 1 0 58.315 51.248z" opacity=".8" />
  <path fill="#8e7469" d="M47.291 49.043000000000006A.221.224 0 1 0 47.291 49.491.221.224 0 1 0 47.291 49.043000000000006zM47.512 50.753A.221.224 0 1 0 47.512 51.20099999999999.221.224 0 1 0 47.512 50.753zM49.03 49.818000000000005A.221.224 0 1 0 49.03 50.266.221.224 0 1 0 49.03 49.818000000000005zM52.222 49.786A.221.224 0 1 0 52.222 50.233999999999995.221.224 0 1 0 52.222 49.786zM53.088 51.27A.221.224 0 1 0 53.088 51.717999999999996.221.224 0 1 0 53.088 51.27zM54.121 49.80500000000001A.221.224 0 1 0 54.121 50.253.221.224 0 1 0 54.121 49.80500000000001z" opacity=".8" />
  <path fill="#472b29" d="M39.216 51.902c-.153 0-.284-.117-.298-.272l-.692-7.542c-.015-.165.106-.311.271-.326.164-.015.312.106.326.271l.692 7.542c.015.165-.106.311-.271.326C39.234 51.902 39.225 51.902 39.216 51.902zM61.696 51.797c-.006 0-.013 0-.019 0-.166-.011-.292-.152-.281-.318l.448-7.36c.01-.166.165-.289.317-.281.166.011.292.152.281.318l-.448 7.36C61.985 51.675 61.854 51.797 61.696 51.797z" />
  <path fill="#472b29" d="M51.641,89.396c-7.647,0-15.025-2.254-21.334-6.519c-0.151-0.102-0.234-0.277-0.218-0.458 c0.087-0.982,0.174-2.654,0.258-4.271c0.126-2.428,0.191-3.565,0.266-3.959c0.005-0.05,0.018-0.099,0.037-0.144 c0.438-1.437,1.378-3.399,3.371-4.688c0.652-0.422,1.432-0.759,2.317-1.002l7.728-2.655c0.525-0.142,0.673-0.568,0.717-0.811 c0.097-0.53,0.167-1.349,0.21-2.436c-2.209-1.337-4.084-3.106-5.576-5.266c-0.683-0.989-0.991-2.005-0.943-3.107 c0.029-0.677,0.033-1.355,0.029-2.034c-0.711-0.168-1.188-0.658-1.451-1.487c-0.161-0.507-0.459-1.574-0.973-3.784l-0.025-0.109 c-0.37-1.124-0.108-1.829,0.179-2.217c0.236-0.318,0.679-0.685,1.495-0.794c-0.125-0.706-0.338-1.978-0.617-3.642 c-0.25-1.493-0.509-3.037-0.553-3.242c-0.179-0.83-0.056-1.519,0.366-2.046c0.357-0.446,0.852-0.673,1.261-0.788 c-0.517-1.132-0.612-2.121-0.285-2.911c0.342-0.826,0.902-1.481,1.632-1.914c0-0.023-0.001-0.046-0.001-0.069 c0-2.999,2.996-5.439,6.678-5.439c1.336,0,2.61,0.316,3.71,0.918c1.069-1.061,2.556-1.662,4.141-1.662 c2.949,0,5.377,2.085,5.63,4.733c2.775-0.372,5.268,1.75,5.268,4.413c0,0.25-0.021,0.499-0.064,0.744 c1.781,0.283,3.122,1.758,3.122,3.529c0,0.861-0.313,1.673-0.886,2.32c0.066,0.197,0.115,0.399,0.147,0.605 c0.705-0.04,1.573-0.332,2.153-1.077c0.141-0.18,0.387-0.243,0.596-0.149c0.21,0.092,0.33,0.315,0.291,0.541 c-0.444,2.603-1.101,4.149-3.295,4.865c-1.578,0.422-2.877,0.206-3.394,0.103c-0.062,0.092-0.13,0.184-0.202,0.272 c0.528,0.161,0.844,0.442,1.03,0.694c0.286,0.387,0.548,1.091,0.169,2.244l-0.021,0.1c-0.412,1.77-0.737,3.035-0.968,3.762 c-0.232,0.732-0.649,1.21-1.241,1.424l0,0.031c-0.001,0.845-0.003,1.688-0.011,2.533c-0.006,0.601-0.244,1.451-0.542,1.937 c-1.613,2.625-3.643,4.652-6.039,6.03c0.043,1.075,0.114,1.871,0.212,2.368c0.048,0.246,0.202,0.678,0.685,0.807 c1.628,0.566,9.609,3.363,10.375,3.867c3.174,2.091,3.299,4.146,3.391,5.646l0.012,0.194l0.358,8.504 c0.008,0.188-0.089,0.362-0.251,0.455C64.832,87.654,58.282,89.396,51.641,89.396z M31.109,82.212 c6.09,4.047,13.183,6.185,20.532,6.185c6.366,0,12.645-1.644,18.181-4.757l-0.356-8.375c-0.087-1.433-0.187-3.057-2.942-4.871 c-0.512-0.337-6.479-2.478-10.119-3.748c-0.7-0.185-1.213-0.761-1.373-1.568c-0.117-0.596-0.198-1.548-0.241-2.831 c-0.006-0.188,0.094-0.364,0.259-0.455c2.359-1.295,4.357-3.256,5.938-5.829c0.206-0.336,0.391-1,0.395-1.423 c0.008-0.842,0.009-1.684,0.011-2.524l0.001-0.422c0-0.249,0.184-0.46,0.431-0.494c0.321-0.045,0.647-0.178,0.857-0.841 c0.222-0.701,0.541-1.941,0.947-3.686c0.028-0.12,0.047-0.188,0.048-0.192c0.132-0.404,0.238-0.973-0.026-1.33 c-0.21-0.283-0.659-0.438-1.282-0.421c-0.218,0.021-0.425-0.142-0.489-0.357c-0.064-0.216,0.024-0.447,0.215-0.566 c0.12-0.08,0.637-0.603,0.828-0.981c0.087-0.173,0.278-0.271,0.46-0.275c0.134,0.006,0.224,0.017,0.357,0.043 c0.433,0.089,1.579,0.319,2.997-0.064c1.23-0.401,1.867-1.094,2.302-2.701c-0.683,0.367-1.48,0.543-2.268,0.471 c-0.254-0.023-0.45-0.233-0.455-0.489c-0.006-0.356-0.083-0.699-0.227-1.019c-0.087-0.194-0.042-0.424,0.114-0.57 c0.523-0.49,0.811-1.143,0.811-1.838c0-1.423-1.216-2.58-2.711-2.58c-0.161,0-0.33-0.076-0.424-0.206 c-0.094-0.13-0.139-0.297-0.088-0.449c0.111-0.335,0.167-0.685,0.167-1.038c0-1.906-1.626-3.457-3.626-3.457 c-0.331,0-0.666,0.046-0.998,0.136c-0.154,0.041-0.318,0.009-0.442-0.091c-0.125-0.1-0.195-0.252-0.188-0.41l0.461-0.122 L59.16,28.05h-0.45c0-2.311-2.086-4.189-4.651-4.189c-1.441,0-2.779,0.592-3.67,1.623c-0.161,0.186-0.435,0.229-0.644,0.097 c-1.018-0.639-2.241-0.976-3.537-0.976c-3.131,0-5.678,1.991-5.678,4.439c0,0.095,0.009,0.188,0.018,0.283 c0.019,0.208-0.091,0.436-0.279,0.525c-0.653,0.313-1.153,0.851-1.445,1.558c-0.258,0.624-0.075,1.546,0.516,2.597 c0.076,0.136,0.121,0.366,0.059,0.51c-0.078,0.182-0.257,0.301-0.455,0.303c-0.008,0-0.838,0.029-1.24,0.532 c-0.225,0.28-0.282,0.688-0.169,1.21c0.049,0.228,0.287,1.646,0.562,3.287c0.291,1.738,0.653,3.902,0.714,4.163 c0.035,0.15-0.002,0.308-0.099,0.428s-0.243,0.166-0.398,0.185c-0.594-0.024-1.067,0.137-1.277,0.421 c-0.266,0.359-0.16,0.929-0.023,1.343c0.001,0.005,0.017,0.062,0.04,0.163c0.506,2.178,0.797,3.219,0.952,3.707 c0.217,0.685,0.55,0.835,1.017,0.854c0.266,0.012,0.476,0.229,0.479,0.496c0.007,0.84,0.009,1.679-0.027,2.517 c-0.038,0.877,0.213,1.693,0.767,2.496c1.465,2.121,3.321,3.845,5.515,5.124c0.159,0.092,0.254,0.265,0.248,0.448 c-0.042,1.283-0.122,2.252-0.237,2.877c-0.146,0.797-0.672,1.39-1.409,1.587l-7.724,2.654c-0.816,0.225-1.502,0.521-2.069,0.887 c-1.758,1.136-2.585,2.9-2.969,4.18c-0.001,0.002,0,0.003-0.001,0.005c-0.062,0.261-0.164,2.233-0.247,3.817 C31.269,79.676,31.189,81.195,31.109,82.212z" />
  <path fill="#fff" d="M81.114 32.917A0.684 0.684 0 1 0 81.114 34.285A0.684 0.684 0 1 0 81.114 32.917Z" />
  <path fill="#f1bc19" d="M78.485 13.682A.886.886 0 1 0 78.485 15.453999999999999.886.886 0 1 0 78.485 13.682zM83.926 12.716A4.007 4.007 0 1 0 83.926 20.729999999999997 4.007 4.007 0 1 0 83.926 12.716z" />
  <path fill="#00a5a5" d="M87.933 23.909A1.884 1.884 0 1 0 87.933 27.677A1.884 1.884 0 1 0 87.933 23.909Z" />
  <g>
    <path fill="#fff" d="M77.599 30.292A1.796 1.796 0 1 0 77.599 33.884A1.796 1.796 0 1 0 77.599 30.292Z" />
  </g>
  <g opacity=".49">
    <path fill="#472b29" d="M56.199,56.371c-0.051-0.063-0.124-0.103-0.206-0.111c-0.082-0.01-0.161,0.014-0.224,0.064 c-1.164,0.916-3.108,1.442-5.332,1.442c-2.224,0-4.168-0.525-5.332-1.441c-0.126-0.102-0.33-0.078-0.43,0.046 c-0.106,0.129-0.086,0.32,0.044,0.424c1.38,1.114,3.518,1.779,5.717,1.779c2.2,0,4.337-0.665,5.717-1.779 C56.285,56.69,56.305,56.5,56.199,56.371z" />
  </g>
</svg>