<svg data-name="Layer 2" viewBox="0 0 2050 2050" xmlns="http://www.w3.org/2000/svg"><path d="M1211.2 1712.7V1625h98.5v174.7a119 119 0 0 1-119.1 119H466.3a119 119 0 0 1-114.1-84.8h737.9a121.2 121.2 0 0 0 121.1-121.2Z" fill="#323150" class="fill-323150"></path><path d="M347.2 1625h864v87.7a121.2 121.2 0 0 1-121.1 121.2H352.2a120.9 120.9 0 0 1-5-34.2Z" fill="#72719c" class="fill-4d4c78"></path><path d="M1211.2 228.9a120.8 120.8 0 0 0-49.5-97.6h28.9a119 119 0 0 1 119.1 119v88.8h-98.5Z" fill="#323150" class="fill-323150"></path><path d="M1211.2 228.9v110.2h-864v-88.8a119 119 0 0 1 119.1-119h695.4a120.8 120.8 0 0 1 49.5 97.6Z" fill="#72719c" class="fill-4d4c78"></path><path d="M1211.2 339.1h98.5V1625h-98.5z" fill="#46a1f8" class="fill-46a1f8"></path><path d="M347.2 339.1h864V1625h-864z" fill="#67baeb" class="fill-67baeb"></path><circle cx="844.3" cy="1787.3" r="72.8" fill="#323150" class="fill-323150"></circle><circle cx="828.5" cy="1774.4" r="65.9" fill="#c8c2e9" class="fill-c8c2e9"></circle><rect height="106.96" rx="53.5" ry="53.5" transform="rotate(180 576.25 184.75)" width="260.8" x="445.9" y="131.3" fill="#64639c" class="fill-64639c"></rect><rect height="106.96" rx="53.5" ry="53.5" transform="rotate(-180 516.8 1678.45)" width="260.8" x="386.4" y="1625" fill="#64639c" class="fill-64639c"></rect><path d="M1276.7 1359.6H828.5V676h407.9a78.3 78.3 0 0 1 78.2 78.3v643.2a37.9 37.9 0 0 0-37.9-37.9Z" fill="#72719c" class="fill-4d4c78"></path><path d="M884.9 1320.3V676h-56.4v683.6h448.2a37.9 37.9 0 0 1 37.9 37.9v-77.2Z" fill="#323150" class="fill-323150"></path><path d="M1352.5 1359.6h448.3V676h-407.9a78.4 78.4 0 0 0-78.3 78.3v643.2a37.9 37.9 0 0 1 37.9-37.9Z" fill="#72719c" class="fill-4d4c78"></path><path d="M1370.2 1303.7v-605a78.6 78.6 0 0 1 2.7-20.1 78.3 78.3 0 0 0-58.3 75.7v643.2a37.9 37.9 0 0 1 37.9-37.9h448.3V1304Z" fill="#323150" class="fill-323150"></path><path d="M1195.3 839H947.8a20 20 0 0 1 0-40h247.5a20 20 0 0 1 0 40ZM1195.3 961.7H947.8a20 20 0 0 1 0-40h247.5a20 20 0 0 1 0 40ZM1195.3 1084.4H947.8a20 20 0 0 1 0-40h247.5a20 20 0 0 1 0 40ZM1195.3 1207.1H947.8a20 20 0 1 1 0-40h247.5a20 20 0 0 1 0 40ZM1681.4 839H1434a20 20 0 0 1 0-40h247.4a20 20 0 0 1 0 40ZM1681.4 961.7H1434a20 20 0 0 1 0-40h247.4a20 20 0 0 1 0 40ZM1681.4 1084.4H1434a20 20 0 0 1 0-40h247.4a20 20 0 0 1 0 40ZM1681.4 1207.1H1434a20 20 0 0 1 0-40h247.4a20 20 0 0 1 0 40Z" fill="#c8c2e9" class="fill-c8c2e9"></path></svg>