<svg xmlns="http://www.w3.org/2000/svg" viewBox="0 0 64 64" id="Phonebook"><path fill="#008abe" d="M44 6v52a6 6 0 0 1-6 6H10a6 6 0 0 1-6-6V6a6 6 0 0 1 6-6c30.32 0 28.68-.17 30.14.4A6 6 0 0 1 44 6Z" class="color00bebd svgShape"></path><path fill="#ffffff" d="M42 6v50a4 4 0 0 1-4 4H10a4 4 0 0 1-4-4V6a4 4 0 0 1 4-4h5.28a1 1 0 0 1 1 .68c.27.83.56 2.32 2.21 2.32h11.07a2 2 0 0 0 1.9-1.37l.31-.95a1 1 0 0 1 .95-.68h5.77A4 4 0 0 1 42 6Z" class="colorffffff svgShape"></path><path fill="#d9d9d9" d="M35 58H13a1 1 0 0 1 0-2h22a1 1 0 0 1 0 2Z" class="colord9d9d9 svgShape"></path><circle cx="14" cy="14" r="5" fill="#87ddfd" class="color50d9d7 svgShape"></circle><circle cx="14" cy="30" r="5" fill="#00bbff" class="colorffac00 svgShape"></circle><circle cx="14" cy="46" r="5" fill="#87ddfd" class="color50d9d7 svgShape"></circle><path fill="#d9d9d9" d="M21 9h18v2H21zM21 13h18v6H21zM21 25h18v2H21zM21 29h18v6H21zM21 41h18v2H21zM21 45h18v6H21z" class="colord9d9d9 svgShape"></path><path fill="#008abe" d="M17.66 17.41a5 5 0 0 1-7.32 0 4 4 0 0 1 7.32 0Z" class="color00bebd svgShape"></path><circle cx="14" cy="13" r="2" fill="#008abe" class="color00bebd svgShape"></circle><path fill="#2c7c9a" d="M42 14h2v36h-2z" class="color00aaa8 svgShape"></path><path fill="#f3f3f3" d="M42 14v36h-3v-5h-9.82a2.87 2.87 0 0 1 0-2H39v-2h-7a3 3 0 0 1 0-6h7v-6h-7a3 3 0 0 1-2.82-2H39v-2h-9.82A3 3 0 0 1 32 23a3 3 0 0 1-2.82-4H39v-5Z" class="colorf3f3f3 svgShape"></path><path fill="#c8c8c8" d="M39 14v5h-9.82A3 3 0 0 1 32 17h.81A6 6 0 0 1 38 14zm-9.82 11H39v2h-9.82a2.87 2.87 0 0 1 0-2zM32 29h7v6h-7a3 3 0 0 1 0-6zm0 12h7v2h-9.82A3 3 0 0 1 32 41zm-2.82 4H39v5h-1a6 6 0 0 1-5.19-3H32a3 3 0 0 1-2.82-2z" class="colorc8c8c8 svgShape"></path><path fill="#008abe" d="M17.66 49.41a5 5 0 0 1-7.32 0 4 4 0 0 1 7.32 0Z" class="color00bebd svgShape"></path><circle cx="14" cy="45" r="2" fill="#008abe" class="color00bebd svgShape"></circle><path fill="#4f97b1" d="M17.66 33.41a5 5 0 0 1-7.32 0 4 4 0 0 1 7.32 0Z" class="colorea9807 svgShape"></path><circle cx="14" cy="29" r="2" fill="#4f97b1" class="colorea9807 svgShape"></circle><path fill="#008abe" d="M38 16h20a2 2 0 0 1 2 2v28a2 2 0 0 1-2 2H38a4 4 0 0 1-4-4V20a4 4 0 0 1 4-4Z" class="color00bebd svgShape"></path><path fill="#f3f3f3" d="M54 39a7 7 0 0 0-14 0Z" class="colorf3f3f3 svgShape"></path><circle cx="47" cy="29" r="4" fill="#f3f3f3" class="colorf3f3f3 svgShape"></circle><path fill="#00bbff" d="M32 21h4a1 1 0 0 0 0-2h-4a1 1 0 0 0 0 2zm0 6h4a1 1 0 0 0 0-2h-4a1 1 0 0 0 0 2zm0 6h4a1 1 0 0 0 0-2h-4a1 1 0 0 0 0 2zm0 6h4a1 1 0 0 0 0-2h-4a1 1 0 0 0 0 2zm0 6h4a1 1 0 0 0 0-2h-4a1 1 0 0 0 0 2z" class="colorffac00 svgShape"></path></svg>