<svg xmlns="http://www.w3.org/2000/svg" viewBox="0 0 100 100" width="50px" height="50px">
  <path fill="#f1bc19" d="M77 12A1 1 0 1 0 77 14A1 1 0 1 0 77 12Z" />
  <path fill="#e6edb7" d="M50 13A37 37 0 1 0 50 87A37 37 0 1 0 50 13Z" />
  <path fill="#f1bc19" d="M83 11A4 4 0 1 0 83 19A4 4 0 1 0 83 11Z" />
  <path fill="#88ae45" d="M87 22A2 2 0 1 0 87 26A2 2 0 1 0 87 22Z" />
  <path fill="#fbcd59" d="M81 74A2 2 0 1 0 81 78 2 2 0 1 0 81 74zM15 59A4 4 0 1 0 15 67 4 4 0 1 0 15 59z" />
  <path fill="#88ae45" d="M25 85A2 2 0 1 0 25 89A2 2 0 1 0 25 85Z" />
  <path fill="#fff" d="M18.5 49A2.5 2.5 0 1 0 18.5 54 2.5 2.5 0 1 0 18.5 49zM79.5 32A1.5 1.5 0 1 0 79.5 35 1.5 1.5 0 1 0 79.5 32z" />
  <g>
    <path fill="#fdfcee" d="M50 26.042A23.958 23.958 0 1 0 50 73.958A23.958 23.958 0 1 0 50 26.042Z" />
    <path fill="#472b29" d="M50,26.4c13.013,0,23.6,10.587,23.6,23.6S63.013,73.6,50,73.6S26.4,63.013,26.4,50 S36.987,26.4,50,26.4 M50,25c-13.807,0-25,11.193-25,25s11.193,25,25,25s25-11.193,25-25S63.807,25,50,25L50,25z" />
    <path fill="#93bc39" d="M49.999 30.374999999999996A19.626 19.626 0 1 0 49.999 69.627A19.626 19.626 0 1 0 49.999 30.374999999999996Z" />
    <path fill="#c0d078" d="M49.999,33.375c10.333,0,18.781,7.99,19.55,18.126c0.038-0.497,0.076-0.994,0.076-1.5 c0-10.839-8.787-19.626-19.626-19.626c-10.839,0-19.626,8.787-19.626,19.626c0,0.506,0.038,1.003,0.076,1.5 C31.218,41.365,39.667,33.375,49.999,33.375z" />
    <path fill="#472b29" d="M49.999,30.75c10.615,0,19.251,8.635,19.251,19.249c0,10.615-8.636,19.251-19.251,19.251 c-10.614,0-19.249-8.636-19.249-19.251C30.75,39.385,39.385,30.75,49.999,30.75 M49.999,30C38.972,30,30,38.972,30,49.999 C30,61.027,38.972,70,49.999,70C61.027,70,70,61.027,70,49.999S61.027,30,49.999,30L49.999,30z" />
    <path fill="#fdfcee" d="M42,48.25c-0.965,0-1.75,0.785-1.75,1.75s0.785,1.75,1.75,1.75h6.25V58 c0,0.965,0.785,1.75,1.75,1.75s1.75-0.785,1.75-1.75v-6.25H58c0.965,0,1.75-0.785,1.75-1.75s-0.785-1.75-1.75-1.75h-6.25V42 c0-0.965-0.785-1.75-1.75-1.75s-1.75,0.785-1.75,1.75v6.25H42z" />
    <path fill="#472b29" d="M50,40.75c0.689,0,1.25,0.561,1.25,1.25v6v0.75H52h6c0.689,0,1.25,0.561,1.25,1.25 s-0.561,1.25-1.25,1.25h-6h-0.75V52v6c0,0.689-0.561,1.25-1.25,1.25s-1.25-0.561-1.25-1.25v-6v-0.75H48h-6 c-0.689,0-1.25-0.561-1.25-1.25s0.561-1.25,1.25-1.25h6h0.75V48v-6C48.75,41.311,49.311,40.75,50,40.75 M50,40 c-1.104,0-2,0.895-2,2c0,0.382,0,2.992,0,6c-3.008,0-5.618,0-6,0c-1.104,0-2,0.895-2,2c0,1.105,0.896,2,2,2c0.382,0,2.992,0,6,0 c0,3.008,0,5.618,0,6c0,1.105,0.896,2,2,2s2-0.895,2-2c0-0.382,0-2.992,0-6c3.008,0,5.618,0,6,0c1.104,0,2-0.895,2-2 c0-1.105-0.896-2-2-2c-0.382,0-2.992,0-6,0c0-3.008,0-5.618,0-6C52,40.895,51.104,40,50,40L50,40z" />
  </g>
</svg>