<svg xmlns="http://www.w3.org/2000/svg" viewBox="0 0 100 100" width="50px" height="50px">
  <circle cx="77" cy="13" r="1" fill="#f1bc19" />
  <circle cx="50" cy="50" r="37" fill="#e4e4f9" />
  <circle cx="83" cy="15" r="4" fill="#f1bc19" />
  <circle cx="87" cy="24" r="2" fill="#8889b9" />
  <circle cx="81" cy="76" r="2" fill="#fbcd59" />
  <circle cx="15" cy="63" r="4" fill="#fbcd59" />
  <circle cx="25" cy="87" r="2" fill="#8889b9" />
  <circle cx="25.5" cy="69.5" r="2.5" fill="#fff" />
  <circle cx="79.5" cy="33.5" r="1.5" fill="#fff" />
  <path fill="#a6ce4e" d="M63,43c0,9.94-9.4,18-21,18c-2.65,0-5.19-0.42-7.53-1.2l-6.6,3.97c-0.45,0.33-1.05-0.13-0.83-0.64 l2.4-5.7C24.32,54.15,21,48.91,21,43c0-9.94,9.4-18,21-18S63,33.06,63,43z" />
  <path fill="#472b29" d="M42,26.4c10.807,0,19.6,7.447,19.6,16.6S52.807,59.6,42,59.6c-2.457,0-4.841-0.38-7.087-1.128 c-0.144-0.048-0.294-0.072-0.443-0.072c-0.252,0-0.501,0.068-0.722,0.2l-4.395,2.644l1.377-3.271 c0.264-0.628,0.038-1.355-0.535-1.722C25.241,53.077,22.4,48.248,22.4,43C22.4,33.847,31.193,26.4,42,26.4 M42,25 c-11.6,0-21,8.06-21,18c0,5.91,3.32,11.15,8.44,14.43l-2.4,5.7c-0.168,0.39,0.144,0.751,0.501,0.751 c0.11,0,0.223-0.034,0.329-0.111l6.6-3.97C36.81,60.58,39.35,61,42,61c11.6,0,21-8.06,21-18S53.6,25,42,25L42,25z" />
  <path fill="#472b29" d="M24.667,41.5c-0.027,0-0.055-0.002-0.083-0.007c-0.272-0.045-0.456-0.303-0.411-0.576 c0.241-1.439,0.731-2.838,1.458-4.159c0.133-0.242,0.438-0.33,0.679-0.197s0.33,0.438,0.197,0.679 c-0.672,1.221-1.126,2.513-1.348,3.841C25.118,41.327,24.907,41.5,24.667,41.5z" />
  <path fill="#472b29" d="M31.5,55.093c-0.09,0-0.182-0.024-0.264-0.076C26.637,52.151,24,47.771,24,43 c0-0.276,0.224-0.5,0.5-0.5S25,42.724,25,43c0,4.418,2.465,8.489,6.765,11.168c0.234,0.146,0.306,0.455,0.16,0.689 C31.83,55.009,31.667,55.093,31.5,55.093z" />
  <path fill="#472b29" d="M27.411,35.5c-0.109,0-0.22-0.036-0.312-0.11c-0.216-0.172-0.25-0.487-0.078-0.703 c0.492-0.615,1.044-1.204,1.641-1.752c0.204-0.186,0.52-0.173,0.707,0.03c0.187,0.204,0.173,0.52-0.03,0.707 c-0.56,0.514-1.077,1.066-1.537,1.641C27.703,35.436,27.558,35.5,27.411,35.5z" />
  <g>
    <circle cx="35" cy="37" r="3" fill="#605e60" />
    <path fill="#472b29" d="M35,34.5c1.378,0,2.5,1.121,2.5,2.5s-1.122,2.5-2.5,2.5s-2.5-1.121-2.5-2.5S33.622,34.5,35,34.5 M35,34c-1.657,0-3,1.343-3,3s1.343,3,3,3s3-1.343,3-3S36.657,34,35,34L35,34z" />
  </g>
  <g>
    <circle cx="49" cy="37" r="3" fill="#605e60" />
    <path fill="#472b29" d="M49,34.5c1.378,0,2.5,1.121,2.5,2.5s-1.122,2.5-2.5,2.5s-2.5-1.121-2.5-2.5S47.622,34.5,49,34.5 M49,34c-1.657,0-3,1.343-3,3s1.343,3,3,3s3-1.343,3-3S50.657,34,49,34L49,34z" />
  </g>
  <g>
    <path fill="#dee0e2" d="M72.04,67.84l1.619,4.677c0.113,0.325-0.248,0.611-0.539,0.426L68.13,69.78 C65.94,70.56,63.53,71,61,71c-9.94,0-18-6.72-18-15c0-8.28,8.06-15,18-15s18,6.72,18,15C79,60.81,76.28,65.1,72.04,67.84z" />
    <path fill="#472b29" d="M61,42.4c9.153,0,16.6,6.101,16.6,13.6c0,4.182-2.304,8.069-6.32,10.664 c-0.542,0.35-0.774,1.025-0.563,1.634l0.649,1.876l-2.487-1.576c-0.227-0.144-0.487-0.217-0.749-0.217 c-0.158,0-0.317,0.027-0.47,0.081C65.539,69.217,63.298,69.6,61,69.6c-9.153,0-16.6-6.101-16.6-13.6 C44.4,48.501,51.847,42.4,61,42.4 M61,41c-9.94,0-18,6.72-18,15c0,8.28,8.06,15,18,15c2.53,0,4.94-0.44,7.13-1.22l4.991,3.163 c0.063,0.04,0.13,0.058,0.194,0.058c0.231,0,0.432-0.23,0.344-0.484L72.04,67.84C76.28,65.1,79,60.81,79,56 C79,47.72,70.94,41,61,41L61,41z" />
  </g>
  <path fill="#472b29" d="M70.5,65.181c-0.159,0-0.315-0.076-0.412-0.216c-0.157-0.228-0.1-0.539,0.128-0.695 C73.256,62.174,75,59.16,75,56c0-0.276,0.224-0.5,0.5-0.5S76,55.724,76,56c0,3.494-1.901,6.808-5.216,9.093 C70.697,65.152,70.598,65.181,70.5,65.181z" />
  <path fill="#472b29" d="M75.28,54.5c-0.229,0-0.436-0.159-0.488-0.392c-0.143-0.645-0.361-1.282-0.649-1.896 c-0.117-0.25-0.01-0.548,0.24-0.665c0.25-0.118,0.548-0.009,0.665,0.24c0.319,0.68,0.562,1.388,0.721,2.104 c0.06,0.27-0.11,0.537-0.38,0.597C75.352,54.496,75.315,54.5,75.28,54.5z" />
  <g>
    <circle cx="55.5" cy="51.5" r="2.5" fill="#605e60" />
    <path fill="#472b29" d="M55.5,49.5c1.103,0,2,0.897,2,2s-0.897,2-2,2s-2-0.897-2-2S54.397,49.5,55.5,49.5 M55.5,49 c-1.381,0-2.5,1.119-2.5,2.5s1.119,2.5,2.5,2.5s2.5-1.119,2.5-2.5S56.881,49,55.5,49L55.5,49z" />
  </g>
  <g>
    <circle cx="66.5" cy="51.5" r="2.5" fill="#605e60" />
    <path fill="#472b29" d="M66.5,49.5c1.103,0,2,0.897,2,2s-0.897,2-2,2s-2-0.897-2-2S65.397,49.5,66.5,49.5 M66.5,49 c-1.381,0-2.5,1.119-2.5,2.5s1.119,2.5,2.5,2.5s2.5-1.119,2.5-2.5S67.881,49,66.5,49L66.5,49z" />
  </g>
</svg>